<svg width="456" height="456" viewBox="0 0 456 456" fill="none" xmlns="http://www.w3.org/2000/svg">
<rect width="456" height="456" fill="#EAB308"/>
<line x1="12.5" y1="12" x2="12.5" y2="445" stroke="black"/>
<line x1="36.5" y1="12" x2="36.5" y2="445" stroke="black"/>
<line x1="60.5" y1="12" x2="60.5" y2="445" stroke="black"/>
<line x1="84.5" y1="12" x2="84.5" y2="445" stroke="black"/>
<line x1="108.5" y1="12" x2="108.5" y2="445" stroke="black"/>
<line x1="132.5" y1="12" x2="132.5" y2="445" stroke="black"/>
<line x1="156.5" y1="12" x2="156.5" y2="445" stroke="black"/>
<line x1="180.5" y1="12" x2="180.5" y2="445" stroke="black"/>
<line x1="204.5" y1="12" x2="204.5" y2="445" stroke="black"/>
<line x1="228.5" y1="12" x2="228.5" y2="445" stroke="black"/>
<line x1="252.5" y1="12" x2="252.5" y2="445" stroke="black"/>
<line x1="276.5" y1="12" x2="276.5" y2="445" stroke="black"/>
<line x1="300.5" y1="12" x2="300.5" y2="445" stroke="black"/>
<line x1="324.5" y1="12" x2="324.5" y2="445" stroke="black"/>
<line x1="348.5" y1="12" x2="348.5" y2="445" stroke="black"/>
<line x1="372.5" y1="12" x2="372.5" y2="445" stroke="black"/>
<line x1="396.5" y1="12" x2="396.5" y2="445" stroke="black"/>
<line x1="420.5" y1="12" x2="420.5" y2="445" stroke="black"/>
<line x1="444.5" y1="12" x2="444.5" y2="445" stroke="black"/>
<line x1="444" y1="12.5" x2="12" y2="12.5" stroke="black"/>
<line x1="444" y1="36.5" x2="12" y2="36.5" stroke="black"/>
<line x1="444" y1="60.5" x2="12" y2="60.5" stroke="black"/>
<line x1="444" y1="84.5" x2="12" y2="84.5" stroke="black"/>
<line x1="444" y1="108.5" x2="12" y2="108.5" stroke="black"/>
<line x1="444" y1="132.5" x2="12" y2="132.5" stroke="black"/>
<line x1="444" y1="156.5" x2="12" y2="156.5" stroke="black"/>
<line x1="444" y1="180.5" x2="12" y2="180.5" stroke="black"/>
<line x1="444" y1="204.5" x2="12" y2="204.5" stroke="black"/>
<line x1="444" y1="228.5" x2="12" y2="228.5" stroke="black"/>
<line x1="444" y1="252.5" x2="12" y2="252.5" stroke="black"/>
<line x1="444" y1="276.5" x2="12" y2="276.5" stroke="black"/>
<line x1="444" y1="300.5" x2="12" y2="300.5" stroke="black"/>
<line x1="444" y1="324.5" x2="12" y2="324.5" stroke="black"/>
<line x1="444" y1="348.5" x2="12" y2="348.5" stroke="black"/>
<line x1="444" y1="372.5" x2="12" y2="372.5" stroke="black"/>
<line x1="444" y1="396.5" x2="12" y2="396.5" stroke="black"/>
<line x1="444" y1="420.5" x2="12" y2="420.5" stroke="black"/>
<line x1="444" y1="444.5" x2="12" y2="444.5" stroke="black"/>
<circle cx="84.5" cy="372.5" r="3" fill="black"/>
<circle cx="228.5" cy="372.5" r="3" fill="black"/>
<circle cx="372.5" cy="372.5" r="3" fill="black"/>
<circle cx="372.5" cy="84.5" r="3" fill="black"/>
<circle cx="372.5" cy="228.5" r="3" fill="black"/>
<circle cx="228.5" cy="228.5" r="3" fill="black"/>
<circle cx="228.5" cy="84.5" r="3" fill="black"/>
<circle cx="84.5" cy="84.5" r="3" fill="black"/>
<circle cx="84.5" cy="228.5" r="3" fill="black"/>
</svg>